# xmcd
#
# Track frame offsets:
#	150
#	15291
#	31073
#	46320
#	60867
#	79451
#	95171
#	108816
#	125947
#	142731
#	156896
#	174294
#	188827
#
# Disc length: 2792 seconds
#
# Revision: 1
# Processed by: cddbd v1.5PL3 Copyright (c) Steve Scherf et al.
# Submitted via: audiograbber 1.83.01
#
DISCID=9b0ae60d
DTITLE=Norah Jones - Feels Like Home
DYEAR=1900
DGENRE=
TTITLE0=Sunrise
TTITLE1=What Am I To You
TTITLE2=Those Sweet Words
TTITLE3=Carnival Town
TTITLE4=In The Morning
TTITLE5=Be Here To Love Me
TTITLE6=Creepin In
TTITLE7=Toes
TTITLE8=Humble Me
TTITLE9=Above Ground
TTITLE10=The Long Way Home
TTITLE11=The Prettiest Thing
TTITLE12=Don't Miss You At All
EXTD=
EXTT0=
EXTT1=
EXTT2=
EXTT3=
EXTT4=
EXTT5=
EXTT6=
EXTT7=
EXTT8=
EXTT9=
EXTT10=
EXTT11=
EXTT12=
PLAYORDER=
